# xmcd CD database file
#
# Track frame offsets:
#	150
#	28757
#	64088
#	80553
#	103872
#	130320
#	151711
#	178219
#	192080
#	211142
#	253326
#
# Disc length: 3564 seconds
#
# Revision: 1
# Processed by: cddbd v1.5.2PL0 Copyright (c) Steve Scherf et al.
# Submitted via: CDex 1.51
#
DISCID=990dea0b
DTITLE=Patrick Hazell - Sound Tracks, CD 2
DYEAR=1997
DGENRE=Blues
TTITLE0=Home Again
TTITLE1=The Endless Dance
TTITLE2=Bohemian Blues
TTITLE3=Soul Changes
TTITLE4=Bluesintegration
TTITLE5=The Big Valley
TTITLE6=Reeding the Blues
TTITLE7=Lazy Dog Rag
TTITLE8=Together at last
TTITLE9=Blue River
TTITLE10=The Promenade
EXTD=YEAR: 1997
EXTT0=
EXTT1=
EXTT2=
EXTT3=
EXTT4=
EXTT5=
EXTT6=
EXTT7=
EXTT8=
EXTT9=
EXTT10=
PLAYORDER=
